<svg width="40" height="40" viewBox="0 0 40 40" fill="none" xmlns="http://www.w3.org/2000/svg">
<path d="M36.6667 20H26.6667L23.3333 25H16.6667L13.3333 20H3.33333M36.6667 20V30C36.6667 30.884 36.3155 31.7319 35.6904 32.357C35.0652 32.9821 34.2174 33.3333 33.3333 33.3333H6.66666C5.78261 33.3333 4.93476 32.9821 4.30964 32.357C3.68452 31.7319 3.33333 30.884 3.33333 30V20M36.6667 20L30.9167 8.51663C30.6407 7.96127 30.2153 7.49391 29.6883 7.16709C29.1612 6.84027 28.5535 6.66696 27.9333 6.66663H12.0667C11.4465 6.66696 10.8388 6.84027 10.3117 7.16709C9.7847 7.49391 9.35929 7.96127 9.08333 8.51663L3.33333 20" stroke="#1E1E1E" stroke-width="3" stroke-linecap="round" stroke-linejoin="round"/>
</svg>
