<svg width="23" height="22" viewBox="0 0 23 22" fill="none" xmlns="http://www.w3.org/2000/svg">
<path d="M21.3218 11C21.3218 16.5228 16.7726 21 11.1609 21M21.3218 11C21.3218 5.47715 16.7726 1 11.1609 1M21.3218 11H1M11.1609 21C5.54918 21 1 16.5228 1 11M11.1609 21C13.7024 18.2616 15.1467 14.708 15.2252 11C15.1467 7.29203 13.7024 3.73835 11.1609 1M11.1609 21C8.61936 18.2616 7.17502 14.708 7.09653 11C7.17502 7.29203 8.61936 3.73835 11.1609 1M1 11C1 5.47715 5.54918 1 11.1609 1" stroke="#1E1E1E" stroke-width="2" stroke-linecap="round" stroke-linejoin="round"/>
</svg>
